<svg viewBox="0 0 24 24" aria-hidden="true" focusable="false" fill="none" stroke="currentColor" stroke-width="1.8" stroke-linecap="round" stroke-linejoin="round"><circle cx="12" cy="12" r="3"/><path d="M19.4 15a1.7 1.7 0 0 0 .3 1.9l.1.1-2.8 2.8-.1-.1a1.7 1.7 0 0 0-1.9-.3 1.7 1.7 0 0 0-1 1.6v.2h-4V21a1.7 1.7 0 0 0-1-1.6 1.7 1.7 0 0 0-1.9.3l-.1.1L4.2 17l.1-.1a1.7 1.7 0 0 0 .3-1.9A1.7 1.7 0 0 0 3 14H3v-4h.2a1.7 1.7 0 0 0 1.6-1 1.7 1.7 0 0 0-.3-1.9l-.1-.1L7.2 4.2l.1.1a1.7 1.7 0 0 0 1.9.3A1.7 1.7 0 0 0 10 3V3h4v.2a1.7 1.7 0 0 0 1 1.6 1.7 1.7 0 0 0 1.9-.3l.1-.1L19.8 7l-.1.1a1.7 1.7 0 0 0-.3 1.9A1.7 1.7 0 0 0 21 10h.2v4H21a1.7 1.7 0 0 0-1.6 1z"/></svg>